<?xml version="1.0" encoding="utf-8"?>
<!-- Generator: Adobe Illustrator 21.1.0, SVG Export Plug-In . SVG Version: 6.00 Build 0)  -->
<svg version="1.1" id="Layer_1" xmlns="http://www.w3.org/2000/svg" xmlns:xlink="http://www.w3.org/1999/xlink" x="0px" y="0px"
	 viewBox="0 0 220 220" style="enable-background:new 0 0 220 220;" xml:space="preserve">
<style type="text/css">
	.st0{fill:#333333;}
	.st1{fill:url(#SVGID_1_);}
	.st2{fill:url(#SVGID_2_);}
	.st3{fill:url(#SVGID_3_);}
	.st4{fill:url(#SVGID_4_);}
	.st5{fill:url(#SVGID_5_);}
</style>
<g>
	<path class="st0" d="M200.9,143.9V76.1c0-11.5-6.1-22.1-16.1-27.8l-58.8-33.9c-9.9-5.7-22.2-5.7-32.1,0L35.2,48.2
		C25.2,54,19.1,64.6,19.1,76.1v67.9c0,11.5,6.1,22.1,16.1,27.8l58.8,33.9c9.9,5.7,22.2,5.7,32.1,0l58.8-33.9
		C194.8,166,200.9,155.4,200.9,143.9z"/>
	<linearGradient id="SVGID_1_" gradientUnits="userSpaceOnUse" x1="123.7878" y1="145.5038" x2="124.6287" y2="145.5038">
		<stop  offset="0" style="stop-color:#000000"/>
		<stop  offset="1" style="stop-color:#FFFFFF"/>
	</linearGradient>
	<path class="st1" d="M123.8,145.7c0.3-0.1,0.6-0.2,0.8-0.3C124.4,145.5,124.1,145.5,123.8,145.7z"/>
	<linearGradient id="SVGID_2_" gradientUnits="userSpaceOnUse" x1="53.9821" y1="137.8852" x2="151.0529" y2="137.8852">
		<stop  offset="0" style="stop-color:#80E098"/>
		<stop  offset="0.5538" style="stop-color:#388C4C"/>
		<stop  offset="0.6551" style="stop-color:#4FA563"/>
		<stop  offset="0.8829" style="stop-color:#7ED793"/>
		<stop  offset="0.9949" style="stop-color:#90EBA6"/>
	</linearGradient>
	<path class="st2" d="M142.1,135.7c-2.3,0-4.3,0.9-5.7,2.2c-3.8,3.2-7.6,5.7-11.8,7.5c0.1-0.1,0.3-0.1,0.4-0.2
		c-0.1,0.1-0.3,0.1-0.4,0.2c-0.3,0.1-0.6,0.2-0.8,0.3C92.7,159.1,54,140.1,54,110v0.3c0,31,23.4,55.5,54.8,55.5
		c17.4,0,29-5.6,39.1-14.5c1.7-1.5,3.1-3.9,3.1-6.8C151.1,139.7,146.9,135.7,142.1,135.7z"/>
	<linearGradient id="SVGID_3_" gradientUnits="userSpaceOnUse" x1="140.5753" y1="64.3848" x2="146.5806" y2="64.3848">
		<stop  offset="0" style="stop-color:#000000"/>
		<stop  offset="1" style="stop-color:#FFFFFF"/>
	</linearGradient>
	<path class="st3" d="M140.6,62.4c2.1,1.3,4.1,2.6,6,4C144.6,64.8,142.6,63.5,140.6,62.4z"/>
	<linearGradient id="SVGID_4_" gradientUnits="userSpaceOnUse" x1="97.2787" y1="55.8601" x2="97.2787" y2="141.8621">
		<stop  offset="6.013622e-02" style="stop-color:#59DE79"/>
		<stop  offset="0.1192" style="stop-color:#51CB6E"/>
		<stop  offset="0.2718" style="stop-color:#3F9D56"/>
		<stop  offset="0.3487" style="stop-color:#388C4C"/>
		<stop  offset="0.4809" style="stop-color:#3C9050"/>
		<stop  offset="0.6207" style="stop-color:#479D5C"/>
		<stop  offset="0.7641" style="stop-color:#5AB270"/>
		<stop  offset="0.909" style="stop-color:#75D08B"/>
		<stop  offset="1" style="stop-color:#89E6A0"/>
	</linearGradient>
	<path class="st4" d="M140.6,62.4c-8.1-4.9-17.7-8.1-31-8.1C76.9,54.2,54,79.3,54,110c0,30.1,38.8,49.1,69.8,35.7
		c-4.2,1.6-8.8,2.5-14.3,2.5c-20.6,0-35.6-17.1-35.6-38.2v-0.3C73.9,71.5,111.7,46.4,140.6,62.4z"/>
	<linearGradient id="SVGID_5_" gradientUnits="userSpaceOnUse" x1="73.8606" y1="83.5828" x2="150.2815" y2="83.5828">
		<stop  offset="0" style="stop-color:#388C4C"/>
		<stop  offset="1" style="stop-color:#8DDB9F"/>
	</linearGradient>
	<path class="st5" d="M146.6,66.4c-1.9-1.5-3.9-2.8-6-4c-28.8-16-66.7,9.2-66.7,47.3c0-21.1,15.1-38.1,35.6-38.1
		c10.3,0,18.3,3.7,25.7,9.7c1.2,0.9,3.1,1.9,5.7,1.9c5.2,0,9.4-4,9.4-9.2C150.3,70.6,148.6,67.9,146.6,66.4z"/>
</g>
</svg>
